<?xml version="1.0" standalone="no"?>
<!DOCTYPE svg PUBLIC "-//W3C//DTD SVG 20010904//EN"
 "http://www.w3.org/TR/2001/REC-SVG-20010904/DTD/svg10.dtd">
<svg version="1.0" xmlns="http://www.w3.org/2000/svg"
 width="454.000000pt" height="455.000000pt" viewBox="0 0 454.000000 455.000000"
 preserveAspectRatio="xMidYMid meet">

<g transform="translate(0.000000,455.000000) scale(0.100000,-0.100000)"
fill="#000000" stroke="none">
<path d="M1322 3818 c-27 -27 -5 -64 71 -123 14 -10 23 -23 20 -28 -3 -5 -1
-19 5 -30 6 -12 16 -37 24 -54 7 -18 19 -33 25 -33 7 0 13 -8 13 -18 0 -23 42
-47 67 -38 16 5 16 4 -1 -9 -11 -8 -14 -15 -8 -15 7 0 11 -3 11 -7 -4 -26 2
-34 24 -28 18 6 20 5 10 -6 -22 -22 -14 -32 20 -25 28 5 30 4 15 -8 -22 -16
-23 -27 -3 -20 10 4 15 0 15 -15 0 -12 6 -21 14 -21 8 0 23 -3 33 -6 15 -6 16
-4 6 7 -7 7 -13 21 -13 31 0 10 -5 18 -10 18 -17 0 -69 63 -70 84 0 10 -12 27
-26 38 -14 12 -23 27 -20 35 3 8 -5 29 -18 46 -12 18 -26 40 -29 49 -4 11 -12
15 -22 12 -11 -5 -14 -2 -9 10 4 10 -6 30 -29 55 -19 21 -36 42 -38 47 -2 5
-18 21 -35 36 -23 22 -33 25 -42 16z"/>
<path d="M2320 3600 c0 -11 -4 -20 -9 -20 -10 0 -81 -198 -81 -228 0 -24 19
-28 51 -12 10 6 19 8 19 5 0 -3 -43 -55 -95 -116 -52 -60 -95 -116 -95 -124 0
-29 33 -29 83 -1 27 15 51 25 54 23 2 -3 -48 -60 -111 -127 -109 -114 -133
-152 -103 -163 16 -6 55 15 237 125 85 52 163 97 173 101 27 10 57 -14 57 -44
0 -23 -10 -32 -72 -64 -39 -21 -220 -127 -402 -237 -181 -110 -343 -206 -359
-215 -39 -20 -33 -11 73 112 48 55 94 112 104 126 15 25 16 28 1 43 -20 20
-24 20 -44 2 -36 -31 -286 -176 -289 -167 -2 5 3 43 11 84 16 86 12 97 -40 97
-26 0 -33 4 -33 19 0 32 -22 31 -88 -5 -82 -44 -152 -47 -214 -8 -37 24 -46
25 -72 16 -20 -8 -34 -8 -40 -2 -6 6 -19 10 -29 10 -16 0 -18 -5 -12 -27 3
-16 11 -30 16 -31 5 -2 37 -24 70 -49 34 -24 71 -46 83 -49 23 -4 46 -30 46
-51 0 -20 41 -73 56 -73 7 0 34 -25 61 -56 40 -47 52 -55 78 -52 16 1 44 -1
62 -6 25 -6 32 -13 35 -34 2 -21 9 -27 29 -28 27 -1 133 -75 143 -100 3 -7 14
-14 25 -14 12 0 35 -19 56 -47 33 -44 36 -52 30 -93 -5 -31 -21 -64 -53 -107
l-47 -63 -422 0 c-233 0 -423 -3 -423 -7 0 -3 20 -36 44 -72 35 -52 44 -72 39
-93 -3 -19 -12 -28 -24 -28 -12 0 -19 -7 -19 -20 0 -26 31 -26 48 0 16 27 36
25 55 -3 15 -23 12 -28 -63 -138 -44 -63 -79 -117 -80 -121 0 -5 171 -8 380
-8 l380 0 0 -23 c0 -13 -3 -27 -7 -31 -4 -4 -12 -27 -18 -51 -11 -43 -11 -44
9 -33 12 6 44 27 71 47 28 20 68 49 91 64 l40 27 525 -2 524 -3 3 -42 c4 -49
12 -52 67 -26 35 17 37 17 81 -6 28 -15 44 -31 44 -43 0 -19 5 -22 52 -32 21
-5 26 -3 22 8 -3 8 -1 17 4 20 8 5 9 57 2 91 -7 35 -4 35 295 35 162 0 295 3
295 6 0 3 -33 53 -73 112 -40 59 -76 112 -80 118 -10 17 53 76 68 64 17 -14
47 -1 41 17 -3 8 -6 16 -6 19 0 2 -6 1 -14 -2 -30 -11 -23 15 19 79 25 36 45
69 45 72 0 3 -153 5 -340 5 -254 0 -345 3 -360 12 -16 10 -24 10 -40 0 -11 -6
-26 -12 -34 -12 -14 0 -41 77 -66 187 -20 90 -21 90 255 281 82 58 160 118
173 133 13 16 29 29 36 29 6 0 19 9 29 20 9 11 23 20 30 20 8 0 24 12 38 26
13 14 45 37 71 51 27 15 54 38 61 53 13 25 12 27 -12 38 -14 6 -51 8 -81 5
-46 -4 -119 -5 -287 -6 -118 0 -173 5 -214 18 -43 15 -52 15 -93 1 -36 -12
-61 -13 -125 -6 -113 13 -118 16 -126 97 -5 51 -12 72 -28 84 -19 16 -20 20
-7 93 15 90 8 107 -36 87 -15 -6 -29 -9 -32 -6 -3 3 -7 33 -8 66 -2 40 -8 65
-18 73 -13 10 -13 17 4 66 11 30 19 67 20 83 0 23 -4 27 -30 27 -26 0 -33 7
-60 60 -17 33 -36 60 -44 60 -8 0 -16 7 -20 15 -8 22 -36 18 -36 -5z m37 -109
c1 -42 -3 -50 -24 -60 -33 -15 -33 -15 -23 17 17 57 32 92 39 92 4 0 8 -22 8
-49z m41 -166 c7 -14 12 -28 12 -30 0 -1 -21 -16 -47 -31 -27 -15 -59 -34 -72
-43 -14 -9 -22 -11 -20 -4 5 16 102 133 110 133 3 0 11 -11 17 -25z m42 -141
c16 -40 12 -74 -6 -74 -14 0 -125 -62 -213 -119 -13 -8 -22 -10 -20 -4 8 22
202 223 215 223 8 0 19 -12 24 -26z m81 -284 c10 -6 19 -19 19 -30 0 -10 5
-22 10 -25 18 -11 11 -23 -17 -30 -16 -3 -134 -70 -263 -147 -129 -78 -239
-143 -245 -145 -24 -11 74 72 242 205 99 79 189 152 198 163 21 22 29 23 56 9z
m-1071 -123 c0 -11 -166 -117 -183 -117 -4 0 -7 8 -7 18 0 12 27 34 78 64 79
48 112 58 112 35z m795 3 c-3 -5 -104 -88 -223 -184 -119 -96 -232 -188 -249
-204 -57 -53 -33 -90 35 -57 20 9 138 78 262 153 261 156 240 145 240 138 0
-11 -431 -366 -445 -366 -7 0 -23 12 -34 26 -13 16 -21 21 -21 12 0 -8 -5 -19
-11 -25 -9 -9 -20 -2 -46 25 -30 32 -35 45 -40 102 l-6 66 109 66 c60 36 180
109 268 162 87 53 160 96 163 96 2 0 1 -4 -2 -10z m380 -60 l50 -5 -85 -51
c-47 -28 -166 -101 -265 -161 -222 -135 -242 -146 -195 -101 20 18 99 85 175
148 77 63 166 140 200 171 60 57 60 57 65 31 5 -24 11 -28 55 -32z m650 10 c3
-5 -8 -16 -25 -25 -28 -15 -30 -15 -30 4 0 17 11 25 42 30 4 0 9 -3 13 -9z
m-285 -4 c0 -3 -73 -49 -162 -102 -90 -54 -255 -154 -368 -224 -256 -158 -306
-187 -297 -173 4 7 76 61 160 121 259 185 339 243 422 306 81 62 106 71 203
74 23 1 42 0 42 -2z m178 -48 c-2 -15 -52 -51 -188 -133 -192 -116 -525 -319
-715 -435 -334 -204 -257 -143 230 181 226 150 450 302 500 338 109 81 156
104 168 84 5 -7 7 -23 5 -35z m-1701 10 c-3 -13 -11 -49 -17 -80 -12 -61 -22
-70 -42 -39 -6 10 -17 17 -24 14 -6 -2 -29 3 -50 12 l-38 16 80 49 c43 27 83
50 88 50 4 0 6 -10 3 -22z m209 -69 c-88 -104 -130 -149 -142 -149 -7 0 -26
12 -43 26 l-31 26 82 48 c46 26 99 57 118 68 44 27 49 21 16 -19z m789 -104
c-16 -14 -66 -51 -110 -82 -88 -63 -192 -137 -362 -261 -62 -45 -115 -77 -118
-73 -3 5 -1 11 3 13 5 1 25 28 44 58 29 46 50 63 124 106 49 28 168 99 264
158 96 58 177 106 180 106 3 -1 -8 -12 -25 -25z m525 -30 c0 -5 -195 -135
-450 -300 -36 -23 -124 -80 -195 -127 -164 -107 -170 -110 -203 -106 -25 3
-23 6 33 41 142 90 804 494 813 496 1 1 2 -1 2 -4z m-112 -162 c-2 -10 -14
-20 -28 -22 -25 -3 -25 -3 -6 18 23 26 39 27 34 4z m-463 -22 c-24 -22 -512
-345 -527 -349 -14 -3 -18 2 -18 20 0 18 10 29 44 45 24 12 146 83 271 157
214 127 253 149 230 127z m365 -41 c-24 -22 -121 -86 -214 -142 -199 -117
-195 -115 -176 -95 15 16 419 277 428 277 3 0 -14 -18 -38 -40z m-10 -140 c0
-5 -4 -10 -10 -10 -5 0 -10 5 -10 10 0 6 5 10 10 10 6 0 10 -4 10 -10z m-95
-18 c-6 -5 -54 -36 -108 -70 -90 -57 -127 -73 -127 -54 0 12 203 131 225 132
11 0 15 -3 10 -8z m73 -66 c-1 -13 4 -31 12 -41 13 -15 12 -19 -5 -31 -18 -13
-85 -20 -85 -9 0 7 71 105 77 105 2 0 3 -11 1 -24z m-938 -35 c0 -6 -4 -13
-10 -16 -5 -3 -10 1 -10 9 0 9 5 16 10 16 6 0 10 -4 10 -9z m806 -26 c-10 -15
-26 -25 -41 -25 -33 0 -32 5 12 34 43 30 52 27 29 -9z m-838 -67 c7 -7 12 -31
12 -55 0 -41 11 -55 25 -33 11 18 74 11 94 -9 25 -25 33 -68 29 -150 -2 -47
-7 -67 -20 -75 -30 -18 -43 8 -48 97 -5 76 -7 82 -28 85 -41 6 -52 -14 -52
-92 0 -79 -8 -100 -36 -94 -18 3 -19 16 -22 162 -2 121 1 161 10 168 17 10 22
10 36 -4z m1060 0 c7 -7 12 -32 12 -56 0 -38 2 -43 18 -37 40 18 78 17 102 -3
22 -18 25 -29 28 -101 5 -105 -2 -133 -31 -129 -20 3 -22 10 -27 83 -5 87 -12
105 -38 105 -38 0 -46 -17 -52 -102 -5 -80 -6 -83 -30 -83 l-25 0 -3 154 c-2
104 1 158 9 167 14 17 22 17 37 2z m370 0 c8 -8 12 -58 12 -159 0 -121 -3
-149 -16 -160 -11 -9 -20 -10 -32 -2 -25 15 -30 293 -7 317 20 19 27 20 43 4z
m-103 -32 c0 -30 -31 -44 -51 -24 -24 24 -11 50 23 46 20 -2 28 -9 28 -22z
m-1953 -29 c2 -14 11 -23 26 -25 44 -7 35 -62 -10 -62 -17 0 -19 -6 -16 -62 3
-56 5 -62 25 -63 31 -2 39 -13 27 -33 -6 -10 -27 -18 -47 -20 -50 -4 -67 23
-67 109 0 58 -3 67 -20 72 -12 3 -20 14 -20 27 0 13 8 24 20 27 11 3 20 14 20
24 0 20 27 39 46 32 7 -3 14 -14 16 -26z m259 -40 c38 -26 62 -81 48 -109 -8
-15 -23 -18 -84 -18 -79 0 -91 -9 -50 -36 20 -13 30 -14 60 -4 40 13 65 8 65
-14 0 -41 -121 -64 -164 -31 -73 55 -73 156 0 214 35 27 83 27 125 -2z m253
12 c31 -15 38 -32 22 -54 -10 -14 -17 -15 -34 -6 -76 40 -142 -56 -75 -109 18
-14 34 -19 48 -15 52 17 62 17 69 -2 11 -29 -28 -53 -86 -53 -44 0 -54 4 -84
34 -29 29 -34 41 -34 79 0 63 14 94 52 117 37 22 85 26 122 9z m374 -1 c10
-10 17 -10 32 0 47 29 112 4 125 -50 3 -13 5 -56 3 -97 -2 -57 -7 -76 -20 -85
-30 -18 -43 8 -48 97 -5 79 -6 82 -31 85 -37 4 -48 -15 -51 -97 -2 -56 -7 -76
-20 -84 -12 -8 -21 -7 -32 2 -13 11 -16 35 -16 115 0 99 7 126 35 126 6 0 17
-6 23 -12z m382 -5 c71 -42 81 -153 19 -205 -69 -58 -174 -26 -200 60 -31 107
87 201 181 145z m147 6 c8 -8 17 -8 31 0 36 19 80 13 112 -16 57 -51 58 -148
2 -200 -23 -22 -34 -24 -79 -21 l-53 5 0 -37 c0 -41 -18 -64 -44 -54 -14 5
-16 27 -16 164 0 154 2 165 31 169 3 1 10 -4 16 -10z m532 -3 c8 -9 11 -49 9
-116 -3 -87 -6 -105 -21 -114 -15 -9 -21 -7 -33 8 -17 24 -20 186 -4 217 13
22 33 25 49 5z m337 -11 c18 -14 38 -41 44 -60 18 -54 3 -65 -86 -65 -78 0
-90 -9 -49 -36 20 -13 30 -14 60 -4 40 13 65 8 65 -14 0 -46 -118 -63 -171
-25 -62 44 -61 150 2 203 40 34 91 35 135 1z"/>
<path d="M1310 1755 c-11 -13 -5 -15 41 -15 50 1 52 2 35 15 -25 19 -60 19
-76 0z"/>
<path d="M2317 1752 c-10 -10 -17 -35 -17 -55 0 -30 5 -39 30 -52 34 -17 62
-9 80 25 35 65 -45 135 -93 82z"/>
<path d="M2597 1752 c-34 -37 -8 -122 36 -122 31 0 57 31 57 70 0 63 -55 94
-93 52z"/>
<path d="M3330 1755 c-11 -13 -5 -15 41 -15 50 1 52 2 35 15 -25 19 -60 19
-76 0z"/>
<path d="M3316 3575 c-3 -8 -15 -15 -26 -15 -13 0 -20 -7 -20 -19 0 -10 -7
-21 -15 -25 -8 -3 -15 -12 -15 -20 0 -9 -16 -26 -35 -39 -19 -13 -32 -27 -29
-30 11 -11 -25 -57 -40 -51 -8 3 -17 -2 -20 -13 -3 -10 -19 -33 -35 -51 -16
-17 -25 -34 -20 -37 5 -4 9 -11 9 -16 0 -6 -4 -8 -9 -4 -12 7 -51 -33 -51 -52
0 -7 -9 -21 -20 -30 -11 -10 -20 -21 -20 -26 0 -5 -10 -22 -21 -39 -18 -25
-19 -32 -8 -39 8 -5 20 -9 28 -9 22 0 60 47 67 85 4 21 12 35 21 35 8 0 11 5
8 10 -3 6 -1 10 6 10 16 0 75 66 89 101 7 16 18 29 25 29 17 0 24 43 12 67 -9
16 -9 17 6 4 15 -12 17 -12 11 3 -5 13 -2 17 12 14 14 -2 19 3 18 18 0 16 4
20 18 16 16 -4 17 -1 8 23 -12 32 -3 49 11 22 6 -9 15 -17 21 -17 9 0 9 3 0
12 -17 17 -15 25 8 31 15 4 20 14 20 36 0 34 -5 39 -14 16z"/>
<path d="M1638 2763 c7 -3 16 -2 19 1 4 3 -2 6 -13 5 -11 0 -14 -3 -6 -6z"/>
<path d="M2185 953 c-15 -15 -15 -18 -2 -28 12 -9 13 -15 2 -34 -13 -26 -9
-61 9 -73 6 -4 12 -12 12 -18 1 -5 2 -14 3 -20 0 -5 8 -10 16 -10 8 0 12 -6 9
-14 -3 -7 3 -16 12 -20 23 -9 28 -2 15 23 -6 11 -13 59 -16 106 -2 47 -7 90
-10 95 -9 15 -32 12 -50 -7z"/>
</g>
</svg>
